<svg width="291" height="290" xmlns="http://www.w3.org/2000/svg" xmlns:xlink="http://www.w3.org/1999/xlink" overflow="hidden"><defs><clipPath id="clip0"><rect x="1243" y="494" width="291" height="290"/></clipPath><linearGradient x1="1528" y1="778.999" x2="1249" y2="499.001" gradientUnits="userSpaceOnUse" spreadMethod="reflect" id="fill1"><stop offset="0" stop-color="#1E3E77"/><stop offset="0.5" stop-color="#2F5CAC"/><stop offset="1" stop-color="#3A6FCE"/></linearGradient></defs><g clip-path="url(#clip0)" transform="translate(-1243 -494)"><path d="M1309.5 639C1309.5 595.093 1344.87 559.5 1388.5 559.5 1432.13 559.5 1467.5 595.093 1467.5 639 1467.5 682.907 1432.13 718.5 1388.5 718.5 1344.87 718.5 1309.5 682.907 1309.5 639Z" stroke="#000000" stroke-width="4.58333" stroke-miterlimit="8" fill="none" fill-rule="evenodd"/><path d="M1248.5 639C1248.5 561.956 1311.18 499.5 1388.5 499.5 1465.82 499.5 1528.5 561.956 1528.5 639 1528.5 716.044 1465.82 778.5 1388.5 778.5 1311.18 778.5 1248.5 716.044 1248.5 639Z" stroke="#000000" stroke-width="6.875" stroke-miterlimit="8" fill="url(#fill1)" fill-rule="evenodd"/><path d="M1349.5 639C1349.5 617.185 1367.18 599.5 1389 599.5 1410.82 599.5 1428.5 617.185 1428.5 639 1428.5 660.815 1410.82 678.5 1389 678.5 1367.18 678.5 1349.5 660.815 1349.5 639Z" stroke="#000000" stroke-width="6.875" stroke-miterlimit="8" fill-rule="evenodd"/><path d="M1348 611.5C1348 599.626 1357.63 590 1369.5 590 1381.37 590 1391 599.626 1391 611.5 1391 623.374 1381.37 633 1369.5 633 1357.63 633 1348 623.374 1348 611.5Z" fill="#FFFFFF" fill-rule="evenodd"/><rect x="1245.5" y="496.5" width="286" height="285" stroke="#000000" stroke-width="4.58333" stroke-miterlimit="8" fill="none"/></g></svg>