<svg width="296" height="296" xmlns="http://www.w3.org/2000/svg" xmlns:xlink="http://www.w3.org/1999/xlink" overflow="hidden"><defs><clipPath id="clip0"><rect x="2639" y="771" width="296" height="296"/></clipPath><linearGradient x1="2648.5" y1="779.5" x2="2928.5" y2="1059.5" gradientUnits="userSpaceOnUse" spreadMethod="reflect" id="fill1"><stop offset="0" stop-color="#FF0000"/><stop offset="0.12" stop-color="#FF0000"/><stop offset="0.31" stop-color="#FFD966"/><stop offset="0.44" stop-color="#FFFF11"/><stop offset="0.54" stop-color="#00B050"/><stop offset="0.68" stop-color="#0070C0"/><stop offset="0.8" stop-color="#7030A0"/><stop offset="1" stop-color="#7030A0"/></linearGradient></defs><g clip-path="url(#clip0)" transform="translate(-2639 -771)"><path d="M2708.5 919C2708.5 875.093 2744.09 839.5 2788 839.5 2831.91 839.5 2867.5 875.093 2867.5 919 2867.5 962.907 2831.91 998.5 2788 998.5 2744.09 998.5 2708.5 962.907 2708.5 919Z" stroke="#000000" stroke-width="4.58333" stroke-miterlimit="8" fill="none" fill-rule="evenodd"/><path d="M2648.5 919.5C2648.5 842.18 2711.18 779.5 2788.5 779.5 2865.82 779.5 2928.5 842.18 2928.5 919.5 2928.5 996.82 2865.82 1059.5 2788.5 1059.5 2711.18 1059.5 2648.5 996.82 2648.5 919.5Z" stroke="#000000" stroke-width="6.875" stroke-miterlimit="8" fill="url(#fill1)" fill-rule="evenodd"/><path d="M2748.5 919C2748.5 897.185 2766.18 879.5 2788 879.5 2809.82 879.5 2827.5 897.185 2827.5 919 2827.5 940.815 2809.82 958.5 2788 958.5 2766.18 958.5 2748.5 940.815 2748.5 919Z" stroke="#000000" stroke-width="6.875" stroke-miterlimit="8" fill-rule="evenodd"/><path d="M2747 891.5C2747 879.626 2756.63 870 2768.5 870 2780.37 870 2790 879.626 2790 891.5 2790 903.374 2780.37 913 2768.5 913 2756.63 913 2747 903.374 2747 891.5Z" fill="#FFFFFF" fill-rule="evenodd"/><rect x="2644" y="776" width="286" height="286" stroke="#000000" stroke-width="10.3125" stroke-miterlimit="8" fill="none"/></g></svg>