<svg width="287" height="287" xmlns="http://www.w3.org/2000/svg" xmlns:xlink="http://www.w3.org/1999/xlink" overflow="hidden"><defs><clipPath id="clip0"><rect x="1531" y="1464" width="287" height="287"/></clipPath><linearGradient x1="1534.5" y1="1467.5" x2="1814.5" y2="1747.5" gradientUnits="userSpaceOnUse" spreadMethod="reflect" id="fill1"><stop offset="0" stop-color="#FF0000"/><stop offset="0.12" stop-color="#FF0000"/><stop offset="0.31" stop-color="#FFD966"/><stop offset="0.44" stop-color="#FFFF11"/><stop offset="0.54" stop-color="#00B050"/><stop offset="0.68" stop-color="#0070C0"/><stop offset="0.8" stop-color="#7030A0"/><stop offset="1" stop-color="#7030A0"/></linearGradient></defs><g clip-path="url(#clip0)" transform="translate(-1531 -1464)"><path d="M1595.5 1607.5C1595.5 1563.87 1630.87 1528.5 1674.5 1528.5 1718.13 1528.5 1753.5 1563.87 1753.5 1607.5 1753.5 1651.13 1718.13 1686.5 1674.5 1686.5 1630.87 1686.5 1595.5 1651.13 1595.5 1607.5Z" stroke="#000000" stroke-width="4.58333" stroke-miterlimit="8" fill="none" fill-rule="evenodd"/><path d="M1534.5 1607.5C1534.5 1530.18 1597.18 1467.5 1674.5 1467.5 1751.82 1467.5 1814.5 1530.18 1814.5 1607.5 1814.5 1684.82 1751.82 1747.5 1674.5 1747.5 1597.18 1747.5 1534.5 1684.82 1534.5 1607.5Z" stroke="#000000" stroke-width="6.875" stroke-miterlimit="8" fill="url(#fill1)" fill-rule="evenodd"/><path d="M1635.5 1608C1635.5 1586.18 1653.18 1568.5 1675 1568.5 1696.82 1568.5 1714.5 1586.18 1714.5 1608 1714.5 1629.82 1696.82 1647.5 1675 1647.5 1653.18 1647.5 1635.5 1629.82 1635.5 1608Z" stroke="#000000" stroke-width="6.875" stroke-miterlimit="8" fill-rule="evenodd"/><path d="M1634 1580C1634 1568.4 1643.63 1559 1655.5 1559 1667.37 1559 1677 1568.4 1677 1580 1677 1591.6 1667.37 1601 1655.5 1601 1643.63 1601 1634 1591.6 1634 1580Z" fill="#FFFFFF" fill-rule="evenodd"/></g></svg>